<svg width="23" height="23" viewBox="0 0 23 23" fill="none" xmlns="http://www.w3.org/2000/svg">
<path d="M22.6 12.0227C22.6 17.847 17.6481 22.6 11.5 22.6C5.3519 22.6 0.4 17.847 0.4 12.0227C0.4 6.19838 5.3519 1.44544 11.5 1.44544C17.6481 1.44544 22.6 6.19838 22.6 12.0227Z" fill="white" stroke="#FF924F" stroke-width="0.8"/>
<path d="M17.6243 11.3222C15.9691 10.1658 14.3279 9.01903 12.6674 7.85883C11.2908 9.64798 9.92431 11.4239 8.55122 13.2085C8.28561 13.0194 8.03221 12.839 7.745 12.6346C9.31067 10.6001 10.8683 8.57604 12.4398 6.53409C14.7162 8.12623 16.9687 9.7016 19.246 11.2943C17.5811 13.4623 15.9272 15.6158 14.2607 17.7858C13.2663 17.0892 12.2831 16.4005 11.2769 15.6956C10.7429 16.3898 10.2148 17.0764 9.68129 17.7699C7.41738 16.1867 5.16383 14.6107 2.875 13.01C4.43085 10.9824 5.98258 8.96017 7.5558 6.90991C7.81908 7.08917 8.07323 7.26221 8.35789 7.45603C6.98923 9.23758 5.62926 11.0078 4.25114 12.8017C5.98247 14.0161 7.70436 15.224 9.45599 16.4526C10.8229 14.6691 12.1806 12.8976 13.5578 11.1006C13.8282 11.2854 14.0829 11.4596 14.368 11.6543C13.5358 12.7407 12.7118 13.8164 11.8633 14.924C12.5935 15.4352 13.3166 15.9414 14.0615 16.4629C15.338 14.7993 16.5972 13.1583 17.8682 11.5019C17.7862 11.4413 17.7123 11.3866 17.6243 11.3222Z" fill="#FF924F"/>
<path d="M20.5095 3.13636C20.5095 4.68985 19.1861 5.97273 17.5238 5.97273C15.8615 5.97273 14.5381 4.68985 14.5381 3.13636C14.5381 1.58288 15.8615 0.3 17.5238 0.3C19.1861 0.3 20.5095 1.58288 20.5095 3.13636Z" fill="#1414A8" stroke="#05FDD0" stroke-width="0.6"/>
</svg>
