<svg width="18" height="16" viewBox="0 0 18 16" fill="none" xmlns="http://www.w3.org/2000/svg">
<circle cx="8" cy="8" r="7.75" fill="white" stroke="#FF924F" stroke-width="0.5"/>
<path d="M12.2604 7.48945C11.1089 6.6467 9.96721 5.81097 8.81209 4.96544C7.85444 6.26934 6.90387 7.5636 5.94868 8.86414C5.7639 8.72635 5.58763 8.59489 5.38782 8.44589C6.47699 6.96322 7.56058 5.48813 8.65375 4C10.2374 5.16032 11.8043 6.30841 13.3886 7.46917C12.2303 9.04913 11.0798 10.6186 9.9205 12.2C9.22873 11.6923 8.54476 11.1904 7.84482 10.6767C7.47335 11.1826 7.10594 11.683 6.73481 12.1884C5.15992 11.0346 3.59223 9.88605 2 8.71954C3.08233 7.24185 4.1618 5.76808 5.25621 4.27389C5.43936 4.40453 5.61616 4.53064 5.81419 4.67189C4.86208 5.97025 3.91601 7.26037 2.95732 8.56771C4.16172 9.45276 5.35956 10.333 6.57808 11.2284C7.52895 9.92865 8.47344 8.63759 9.43149 7.32801C9.6196 7.46268 9.79683 7.58957 9.99511 7.73153C9.41622 8.52322 8.843 9.30716 8.25276 10.1144C8.76072 10.4869 9.2637 10.8559 9.78189 11.2359C10.6699 10.0235 11.5459 8.8276 12.43 7.62047C12.373 7.57627 12.3216 7.53638 12.2604 7.48945Z" fill="#FF924F"/>
<g filter="url(#filter0_d_1_48)">
<path d="M14 1.5C14 2.32843 13.3284 3 12.5 3C11.6716 3 11 2.32843 11 1.5C11 0.671573 11.6716 0 12.5 0C13.3284 0 14 0.671573 14 1.5Z" fill="#1081E9"/>
<path d="M13.9 1.5C13.9 2.2732 13.2732 2.9 12.5 2.9C11.7268 2.9 11.1 2.2732 11.1 1.5C11.1 0.726801 11.7268 0.1 12.5 0.1C13.2732 0.1 13.9 0.726801 13.9 1.5Z" stroke="#78F1EA" stroke-width="0.2"/>
</g>
<defs>
<filter id="filter0_d_1_48" x="7" y="0" width="11" height="11" filterUnits="userSpaceOnUse" color-interpolation-filters="sRGB">
<feFlood flood-opacity="0" result="BackgroundImageFix"/>
<feColorMatrix in="SourceAlpha" type="matrix" values="0 0 0 0 0 0 0 0 0 0 0 0 0 0 0 0 0 0 127 0" result="hardAlpha"/>
<feOffset dy="4"/>
<feGaussianBlur stdDeviation="2"/>
<feComposite in2="hardAlpha" operator="out"/>
<feColorMatrix type="matrix" values="0 0 0 0 0 0 0 0 0 0 0 0 0 0 0 0 0 0 0.25 0"/>
<feBlend mode="normal" in2="BackgroundImageFix" result="effect1_dropShadow_1_48"/>
<feBlend mode="normal" in="SourceGraphic" in2="effect1_dropShadow_1_48" result="shape"/>
</filter>
</defs>
</svg>
